<?xml version="1.0" encoding="UTF-8" standalone="no"?>
<!-- Created with Inkscape (http://www.inkscape.org/) -->

<svg
   width="191mm"
   height="192mm"
   viewBox="0 0 191 192"
   version="1.1"
   id="svg1"
   sodipodi:docname="gis-battle.svg"
   inkscape:version="1.4.3 (0d15f75, 2025-12-25)"
   xmlns:inkscape="http://www.inkscape.org/namespaces/inkscape"
   xmlns:sodipodi="http://sodipodi.sourceforge.net/DTD/sodipodi-0.dtd"
   xmlns="http://www.w3.org/2000/svg"
   xmlns:svg="http://www.w3.org/2000/svg">
  <sodipodi:namedview
     id="namedview1"
     pagecolor="#505050"
     bordercolor="#ffffff"
     borderopacity="1"
     inkscape:showpageshadow="0"
     inkscape:pageopacity="0"
     inkscape:pagecheckerboard="1"
     inkscape:deskcolor="#505050"
     inkscape:document-units="mm"
     inkscape:zoom="0.57549102"
     inkscape:cx="397.05224"
     inkscape:cy="561.25984"
     inkscape:window-width="1440"
     inkscape:window-height="890"
     inkscape:window-x="-6"
     inkscape:window-y="-6"
     inkscape:window-maximized="1"
     inkscape:current-layer="layer1" />
  <defs
     id="defs1" />
  <g
     inkscape:label="Layer 1"
     inkscape:groupmode="layer"
     id="layer1">
    <ellipse
       style="fill:#ffffff;fill-opacity:0;stroke:#000000;stroke-width:6;stroke-dasharray:none;stroke-opacity:1"
       id="path1"
       cx="96.547981"
       cy="94.938858"
       rx="45.975235"
       ry="44.825851" />
    <ellipse
       style="fill:#ffffff;fill-opacity:0;stroke:#000000;stroke-width:8;stroke-dasharray:none;stroke-opacity:1"
       id="path1-8"
       cx="96.836967"
       cy="95.971451"
       rx="70.442741"
       ry="66.075089" />
    <path
       style="fill:#ffffff;fill-opacity:0;stroke:#000000;stroke-width:8;stroke-dasharray:none;stroke-opacity:1"
       d="m 1.7609527,96.092907 46.1313453,0.45041"
       id="path2" />
    <path
       style="fill:#ffffff;fill-opacity:0;stroke:#000000;stroke-width:8;stroke-dasharray:none;stroke-opacity:1"
       d="M 99.334925,3.5076436 98.594685,49.635247"
       id="path2-2"
       inkscape:transform-center-x="0.91950464"
       inkscape:transform-center-y="-4.1377709" />
    <path
       style="fill:#ffffff;fill-opacity:0;stroke:#000000;stroke-width:8;stroke-dasharray:none;stroke-opacity:1"
       d="m 95.139465,139.77039 -0.74024,46.1276"
       id="path2-2-2"
       inkscape:transform-center-x="0.91950464"
       inkscape:transform-center-y="-4.1377709" />
    <path
       style="fill:#ffffff;fill-opacity:0;stroke:#000000;stroke-width:8;stroke-dasharray:none;stroke-opacity:1"
       d="m 142.32639,96.199627 46.13134,0.45041"
       id="path2-1" />
    <path
       style="fill:#000000;fill-opacity:1;stroke:#000000;stroke-width:3;stroke-dasharray:none;stroke-opacity:1"
       d="m 105.28328,88.732197 c -0.613,0 -1.839,-0.613 -1.839,0 0,0.613 2.40817,-0.22766 1.839,0 -1.31184,0.52474 -2.78445,0.51351 -4.13777,0.9195 -0.45433,0.1363 -0.94625,0.70301 -1.379255,0.91951 -0.13707,0.0685 -0.35139,-0.10837 -0.45975,0 -0.24232,0.24231 -0.17463,0.72942 -0.45976,0.9195 -0.25502,0.17002 -0.62873,-0.0969 -0.9195,0 -1.14809,0.3827 -2.11134,1.78775 -2.75852,2.75852 -0.19008,0.28512 -0.21744,0.67719 -0.45975,0.9195 -0.24231,0.24231 -0.67719,0.21744 -0.9195,0.45975 -0.47329,0.47329 -0.44622,0.90598 -0.919506,1.37926 -0.204335,0.20434 -0.868424,-0.35758 -0.459754,0.45975 0.275852,0.55171 1.10341,0.82756 1.37926,1.37926 0.77308,1.546163 1.9704,3.283963 3.67802,4.137773 0.13707,0.0685 0.3065,0 0.45975,0 0.3065,0.15325 0.63438,0.26967 0.9195,0.45975 0.36066,0.24044 0.53181,0.72566 0.91951,0.91951 0.274145,0.13707 0.645365,-0.13707 0.919505,0 0.87442,0.43721 3.43969,2.26494 3.67802,3.21826 0.14868,0.59471 -0.27414,1.29073 0,1.83901 0.62381,1.24763 0.1633,2.16561 0.45975,2.75852 0.26778,0.53555 0.65173,0.8437 0.91951,1.37925 0.27414,0.54829 -0.10078,1.23435 0,1.83901 0.134,0.80404 1.77522,4.72952 2.75851,5.05728 0.43616,0.14539 0.91951,0 1.37926,0 0.45975,0 0.96804,0.20561 1.37926,0 1.37967,-0.68984 5.23109,-5.86466 5.97677,-7.35604 0.34947,-0.69893 0.0263,-1.64857 0.45976,-2.29876 0.19008,-0.28513 0.67719,-0.21744 0.9195,-0.45975 0.45589,-0.45589 0.70477,-2.57405 0.91951,-3.21827 0.17473,-0.5242 0.78549,-0.8432 0.9195,-1.37926 0.22609,-0.90435 0.23367,-1.85415 0.45975,-2.75851 0.28202,-1.12808 -0.36684,-2.57748 0,-3.678023 0.45722,-1.37166 0.91006,-2.73016 1.37926,-4.13777 0.29704,-0.89113 -0.15964,-1.36967 0.45975,-2.29876 1.48879,-2.23318 1.08649,3.05129 1.83901,2.29876 0.34268,-0.34268 0.11708,-1.03658 0.45976,-1.37926 0.10836,-0.10836 0.35138,0.10837 0.45975,0 0.10836,-0.10836 -0.0372,-0.31107 0,-0.45975 0.46042,-1.84169 0.47652,-2.29876 2.29876,-2.29876 0.3065,0 0.70277,-0.21673 0.9195,0 0.48731,0.48731 -0.46351,5.96926 0,6.89629 0.0685,0.13707 0.35139,-0.10837 0.45976,0 0.45482,0.45482 0.15417,1.91609 0.9195,2.298763 1.42595,0.71297 5.19494,0.78184 6.43653,-0.459753 0.10837,-0.10837 -0.10836,-0.35139 0,-0.45976 0.10837,-0.10836 0.32268,0.0685 0.45976,0 1.00454,-0.50227 1.85063,-1.40252 2.29876,-2.29876 0.15325,-0.3065 0.76625,-0.15325 0.9195,-0.45975 0.13707,-0.27414 -0.0969,-0.62873 0,-0.91951 0.15874,-0.47622 0.69145,-0.92315 0.91951,-1.37925 0.52023,-1.04047 -0.0744,-9.34376 -0.45976,-10.11455 -0.19385,-0.3877 -0.72565,-0.53181 -0.9195,-0.91951 -0.31763,-0.63525 -0.23443,-1.6228 -0.45975,-2.29876 -0.13708,-0.41121 -0.72566,-0.53181 -0.91951,-0.9195 -0.38913,-0.77826 -0.1056,-2.05022 -0.45975,-2.75852 -0.75432,-1.50864 -1.50167,-3.00334 -2.29876,-4.59752 -0.67011,-1.34022 -2.08841,-2.3378 -2.75852,-3.67802 -0.56617,-1.13235 1.33454,0.41503 -0.45975,-1.37926 -0.95124,-0.95124 0.0372,1.45363 -0.9195,-0.45975 -0.0685,-0.13707 0,-0.3065 0,-0.45975 -0.15325,-0.3065 -0.26967,-0.63438 -0.45976,-0.91951 -0.24044,-0.36066 -0.72565,-0.5318 -0.9195,-0.9195 -0.13707,-0.27414 0.13707,-0.64536 0,-0.9195 -0.45975,-0.91951 -1.83901,-1.37926 -2.29876,-2.29877 -0.0685,-0.13707 0.10836,-0.35139 0,-0.45975 -0.28246,-0.28246 -1.07137,-0.30373 -1.37926,-0.9195 -0.0685,-0.13707 0.10837,-0.35139 0,-0.45976 -0.26647,-0.26647 -1.57253,-0.65303 -1.83901,-0.9195 -0.95124,-0.95124 1.45363,0.0372 -0.45975,-0.91951 -0.27414,-0.13707 -0.64536,0.13708 -0.9195,0 -0.44387,-0.22193 -2.55788,-1.17861 -2.75852,-1.37925 -0.10836,-0.10837 0.10837,-0.35139 0,-0.45976 -0.22183,-0.22183 -2.81576,-0.32558 -3.21827,-0.45975 -0.2056,-0.0685 -0.2659,-0.36282 -0.45975,-0.45975 -0.30735,-0.15367 -3.4677,-0.21031 -3.67801,0 -0.3251,0.32509 0,0.9195 0,1.37926 0,0.15325 -0.10837,0.35139 0,0.45975 0.10836,0.10836 0.32268,-0.0685 0.45975,0 0.53781,0.26891 1.46482,1.73749 1.83901,2.29876 1.06425,1.59638 1.06406,5.44475 -0.91951,6.43653 -0.27133,0.13567 -1.07024,0 -1.37925,0 -1.94588,0 -1.90226,-0.58624 -2.75852,-2.29876 -0.19385,-0.38769 -0.78243,-0.50829 -0.9195,-0.9195 -0.35503,-1.06507 -0.64504,-2.69906 -1.37926,-3.67802 -0.20561,-0.27414 -0.67719,-0.21744 -0.91951,-0.45975 -0.0739,-0.0739 -1.79145,-2.20367 -1.83901,-2.29877 -0.31708,-0.63416 0.55679,-0.41123 -0.45975,-0.9195 -1.53826,-0.76913 -4.03986,3.02245 -4.59752,4.13777 -0.20923,0.41846 -0.15347,4.44338 0,5.05728 -0.277115,0.83212 0.74477,0.85506 0.9195,1.37925 0.0969,0.29078 -0.13707,0.64536 0,0.91951 0.1258,0.25159 1.79191,0.55396 0.91951,2.29876 -0.22216,0.44432 -1.39469,1.61685 -1.83901,1.83901 -0.842295,0.42115 -1.911985,0.17757 -2.758515,0.45975 -1.80421,0.6014 -2.42083,1.10717 -4.597526,1.37926 -0.608272,0.076 -1.290725,-0.27414 -1.839011,0 -1.491887,0.74594 -3.005489,3.71222 -3.678017,5.05727 -0.220626,0.44125 0.147171,1.39749 0,1.83901 -0.06854,0.20561 -0.391219,0.25415 -0.459754,0.45976 -0.135278,0.40583 0,1.35602 0,1.839 0,2.184 0.167355,3.67802 2.758514,3.67802 0.601525,0 2.964601,0.0476 3.218268,-0.45975 0.13707,-0.27414 -0.137073,-0.64536 0,-0.9195 0.153249,-0.30651 0.766256,-0.15325 0.919506,-0.45976 0.61667,-1.23333 -0.44159,-3.27276 0,-4.59752 0.18153,-0.5446 1.12077,-0.86228 1.37925,-1.37926 0.0685,-0.13707 -0.13707,-0.39121 0,-0.45975 0.40315,-0.20157 7.010845,-0.80495 7.356045,-0.45975 0.39072,0.39071 0.6724,0.88504 0.91951,1.37926 0.77375,1.5475 -2.12584,3.10436 -1.83901,3.67801 0.23433,0.46867 2.81529,0.86273 3.21826,0.45976 0.21253,-0.21253 -0.13879,-1.10167 0,-1.37926 0.27951,-0.55901 0.65519,-1.31038 0.91951,-1.83901 0.19385,-0.3877 0.5318,-0.72566 0.9195,-0.9195 0.16031,-0.0802 6.27622,-0.0802 6.43654,0 0.92279,0.4614 1.93814,2.10048 1.37925,3.21826 -0.36787,0.73575 -2.32197,0.87309 -1.37925,2.75852 0.498,0.99601 0.90874,0.91412 1.839,1.37925 0.86737,0.43368 3.28069,3.34312 3.67802,4.13777 0.46013,0.92026 -0.22779,2.29738 -0.9195,2.75852 -0.29522,0.19681 -1.46951,0 -1.83901,0 -0.99801,0 -3.30123,0.41827 -4.13777,0 -0.86429,-0.43215 -1.50252,-1.30818 -2.29876,-1.83901 -1.25585,-0.83723 -2.75047,-1.24445 -4.13778,-1.83901 z"
       id="path3" />
    <path
       style="fill:#000000;fill-opacity:1;stroke:#000000;stroke-width:3;stroke-dasharray:none;stroke-opacity:1"
       d="m 75.399381,57.009287 c -0.613006,0.3065 -2.145512,0.3065 -1.839011,0.9195 0.306502,0.61301 1.839011,-1.60486 1.839011,-0.9195 0,1.50935 -1.278454,2.73638 -1.839011,4.13777 -0.294663,0.73666 0.755203,1.64155 0.919504,2.29876 0.111506,0.44603 -0.205608,0.96804 0,1.37926 0.153252,0.3065 0.766255,0.15325 0.919507,0.45975 0.13707,0.27415 -0.09692,0.62873 0,0.91951 0.192799,0.57839 0.693388,1.16066 0.919503,1.839 0.09692,0.29078 -0.137072,0.64537 0,0.91951 0.956689,1.91338 -0.03174,-0.49149 0.919504,0.45975 0.108366,0.10837 -0.108363,0.35139 0,0.45975 0.59441,0.59441 3.373969,-0.61545 3.678021,-0.9195 1.556916,-1.55692 0.389072,-2.08673 0.919503,-3.67802 0.06854,-0.2056 0.362829,-0.2659 0.459751,-0.45975 0.354034,-0.70807 0.10572,-2.05045 0.459753,-2.75851 0.543232,-1.08647 1.629797,-3.6367 0.919504,-5.05728 -0.283408,-0.56682 -1.731941,-2.01535 -2.298761,-2.29876 -0.13707,-0.0685 -0.351388,0.10836 -0.45975,0 -0.108366,-0.10837 0.108362,-0.35139 0,-0.45975 -0.608399,-0.6084 -2.29131,-0.45976 -3.218268,-0.45976"
       id="path4" />
    <path
       style="fill:#000000;fill-opacity:1;stroke:#000000;stroke-width:3;stroke-dasharray:none;stroke-opacity:1"
       d="m 55.170278,112.63932 c 0.459751,-0.613 1.99226,-1.37926 1.379257,-1.83901 -0.613005,-0.45975 -1.977601,2.31769 -1.379257,1.83901 4.694315,-3.75545 4.597522,-4.33786 4.597522,-9.19505 0,-0.6131 0.291759,-2.175 0,-2.75851 -0.757341,-1.514683 -2.88653,-1.635293 -3.678018,-3.218273 -0.2452,-0.4904 0.245203,-1.3486 0,-1.83901 -0.956688,-1.91337 0.03174,0.49149 -0.919504,-0.45975 -0.319423,-0.31942 -0.05042,-1.40447 -0.919506,-1.83901 -0.634161,-0.31708 -0.411234,0.55679 -0.919504,-0.45975 -0.827056,-1.65411 -3.33611,-7.5801 -2.298761,-9.6548 0.312439,-0.62488 1.066819,-1.21413 1.379257,-1.83901 0.320607,-0.64121 0.139145,-1.65754 0.459751,-2.29876 0.258487,-0.51697 1.197724,-0.83466 1.379257,-1.37926 0.430157,-1.29046 0.05602,-1.17738 1.379257,-1.839 0.274145,-0.13708 0.613005,0 0.919506,0 2.964948,0 0.261144,5.51702 1.839008,5.51702 1.244862,0 0.424654,0.0351 1.379257,-0.9195 0.108365,-0.10837 0.351388,0.10836 0.459753,0 0.212527,-0.21253 -0.138792,-1.10167 0,-1.37926 0.464865,-0.92973 0.925859,-1.85172 1.379257,-2.75851 0.15325,-0.3065 0.766255,-0.15325 0.919504,-0.45975 0.137073,-0.27415 -0.09692,-0.62874 0,-0.91951 0.240401,-0.7212 0.960181,-0.29089 1.379257,-0.9195 0.621435,-0.93216 1.389105,-1.85871 1.83901,-2.75852 0.191977,-0.38395 1.350786,-0.86256 1.379257,-0.9195 0.13707,-0.27415 -0.09692,-0.62873 0,-0.91951 0.201499,-0.60449 1.69916,-2.33897 1.839008,-2.75851 0.09692,-0.29077 -0.07434,-0.62216 0,-0.91951 0.218834,-0.87533 1.240867,-3.97709 0,-4.59752 -0.271328,-0.13566 -1.070242,0 -1.379257,0 -0.552222,0 -1.815333,-0.24171 -2.298761,0 -1.966423,0.98321 -4.394104,4.19069 -5.517028,6.43653 -0.293597,0.5872 -0.92156,0.46181 -1.379257,0.91951 -0.904407,0.9044 -3.719497,2.88295 -4.137771,4.13777 -0.09692,0.29077 0.137073,0.64536 0,0.9195 -0.06853,0.13708 -0.351388,-0.10836 -0.459751,0 -0.02881,0.0288 -1.270145,2.08054 -1.379257,2.29877 -0.137072,0.27414 0.13707,0.64536 0,0.9195 -0.447243,0.89449 -1.111432,2.14697 -1.379257,3.21827 -0.576635,2.30654 0,7.50411 0,10.11455 0,1.79397 -0.45897,11.955913 0,13.332813 0.06853,0.20561 0.306502,0.3065 0.459751,0.45976 0.153252,0.3065 0.351388,0.59441 0.459753,0.9195 0.137927,0.41378 -0.137924,0.96548 0,1.37926 0.956932,2.87079 1.053621,3.40603 3.218267,6.43653 z"
       id="path5" />
  </g>
</svg>
